<svg xmlns="http://www.w3.org/2000/svg" viewBox="0 0 463.06 434.66"><defs><style>.cls-1{isolation:isolate;}.cls-2{fill:#f0f0f0;}.cls-19,.cls-3{fill:#e0e0e0;}.cls-4{fill:#455a64;}.cls-5{fill:#f5f5f5;}.cls-6{fill:#fafafa;}.cls-7{fill:#e6e6e6;}.cls-8{fill:#27debf;}.cls-11,.cls-25,.cls-30,.cls-33,.cls-9{fill:#fff;}.cls-9{opacity:0.65;}.cls-10,.cls-19,.cls-25{opacity:0.5;}.cls-11{opacity:0.8;}.cls-12{fill:#37474f;}.cls-13{opacity:0.15;}.cls-14{opacity:0.6;}.cls-15{opacity:0.2;}.cls-16,.cls-24,.cls-29{opacity:0.1;}.cls-17{fill:#fffffa;}.cls-18{fill:#263238;}.cls-20{fill:#ffa8a7;}.cls-21{fill:#f28f8f;}.cls-22{fill:#b16668;}.cls-23{fill:#9a4a4d;}.cls-26{opacity:0.05;}.cls-27{fill:#ebebeb;}.cls-28{opacity:0.4;}.cls-29{mix-blend-mode:multiply;}.cls-31{opacity:0.35;}.cls-32{opacity:0.25;}.cls-33{opacity:0.55;}</style></defs><title>logo</title><g class="cls-1"><g id="Layer_2" data-name="Layer 2"><g id="Floor"><ellipse id="Floor-2" data-name="Floor" class="cls-2" cx="231.53" cy="304.83" rx="231.53" ry="129.83"/></g><g id="Shadows"><path id="Shadow" class="cls-3" d="M22.84,319.47l63.5,36.67a2.31,2.31,0,0,0,2,0L256,259.36a2.27,2.27,0,0,1,2.06,0L364,320.51a2.27,2.27,0,0,0,2.06,0l63.5-36.66a.63.63,0,0,0,0-1.19l-171.46-99a2.31,2.31,0,0,0-2.05,0L22.84,318.28A.63.63,0,0,0,22.84,319.47Z"/><ellipse id="Shadow-2" data-name="Shadow" class="cls-3" cx="248.84" cy="340.31" rx="71.56" ry="41.31"/></g><g id="Kitchen"><g id="Kitchen-2" data-name="Kitchen"><path class="cls-4" d="M370.06,303H359.81l1.64,10h0a1.86,1.86,0,0,0,1,1.23,5.49,5.49,0,0,0,5,0,1.87,1.87,0,0,0,1-1.23h0Z"/><path class="cls-4" d="M420.19,274H409.94l1.64,10h0a1.87,1.87,0,0,0,1,1.24,5.47,5.47,0,0,0,5,0,1.87,1.87,0,0,0,1-1.24h0Z"/><path class="cls-4" d="M82.18,338.61H92.43l-1.64,10h0a1.84,1.84,0,0,1-1,1.23,5.43,5.43,0,0,1-5,0,1.85,1.85,0,0,1-1-1.23h0Z"/><path class="cls-4" d="M32.05,309.67H42.3l-1.64,10h0a1.84,1.84,0,0,1-1,1.23,5.49,5.49,0,0,1-5,0,1.85,1.85,0,0,1-1-1.23h0Z"/><polygon class="cls-5" points="257.03 148.39 364.94 210.73 364.94 311.87 257.03 249.53 257.03 148.39"/><polygon class="cls-5" points="29.52 212.96 29.52 314.09 87.36 347.49 87.36 246.35 29.52 212.96"/><polygon class="cls-6" points="364.94 210.73 422.84 177.34 422.84 278.48 364.94 311.87 364.94 210.73"/><polygon class="cls-6" points="87.36 347.49 257.03 249.53 257.03 148.39 87.36 246.35 87.36 347.49"/><polygon class="cls-7" points="135.41 319.74 137.43 318.58 137.43 217.44 135.41 218.6 135.41 319.74"/><polygon class="cls-7" points="206.84 278.47 208.86 277.31 208.86 176.17 206.84 177.34 206.84 278.47"/><polygon class="cls-7" points="312.02 281.28 310 280.12 310 178.98 312.02 180.14 312.02 281.28"/><path class="cls-8" d="M21.81,214.14v2.08a2.29,2.29,0,0,0,1,1.78l63.5,36.67a2.31,2.31,0,0,0,2,0L256,157.89a2.27,2.27,0,0,1,2.06,0L364,219a2.27,2.27,0,0,0,2.06,0l63.5-36.66a2.26,2.26,0,0,0,1-1.78v-2.08a2.28,2.28,0,0,0-1-1.78l-171.46-99a2.25,2.25,0,0,0-2.05,0L22.84,212.36A2.28,2.28,0,0,0,21.81,214.14Z"/><path class="cls-9" d="M21.81,214.14v2.08a2.29,2.29,0,0,0,1,1.78l63.5,36.67a2.31,2.31,0,0,0,2,0L256,157.89a2.27,2.27,0,0,1,2.06,0L364,219a2.27,2.27,0,0,0,2.06,0l63.5-36.66a2.26,2.26,0,0,0,1-1.78v-2.08a2.28,2.28,0,0,0-1-1.78l-171.46-99a2.25,2.25,0,0,0-2.05,0L22.84,212.36A2.28,2.28,0,0,0,21.81,214.14Z"/><g class="cls-10"><path class="cls-8" d="M87.37,250.45v4.47a2.18,2.18,0,0,1-1-.25L22.84,218a2.24,2.24,0,0,1-1-1.78v-2.07a2.35,2.35,0,0,1,.83-1.66c-.37.34-.3.77.19,1.06l63.5,36.67A2.14,2.14,0,0,0,87.37,250.45Z"/><path class="cls-8" d="M365,214.83v4.45a2,2,0,0,1-1-.24l-105.9-61.15a2.07,2.07,0,0,0-1-.25v-4.45a2.18,2.18,0,0,1,1,.25L364,214.58A2,2,0,0,0,365,214.83Z"/></g><path class="cls-8" d="M22.84,213.55l63.5,36.66a2.25,2.25,0,0,0,2,0L256,153.44a2.27,2.27,0,0,1,2.06,0L364,214.59a2.33,2.33,0,0,0,2.06,0l63.5-36.66a.63.63,0,0,0,0-1.19l-171.46-99a2.25,2.25,0,0,0-2.05,0L22.84,212.36A.63.63,0,0,0,22.84,213.55Z"/><path class="cls-11" d="M22.84,213.55l63.5,36.66a2.25,2.25,0,0,0,2,0L256,153.44a2.27,2.27,0,0,1,2.06,0L364,214.59a2.33,2.33,0,0,0,2.06,0l63.5-36.66a.63.63,0,0,0,0-1.19l-171.46-99a2.25,2.25,0,0,0-2.05,0L22.84,212.36A.63.63,0,0,0,22.84,213.55Z"/><path class="cls-4" d="M135.38,214,85.5,185.2a1.25,1.25,0,0,1,0-2.37l65.3-37.7a4.51,4.51,0,0,1,4.11,0l49.87,28.79a1.26,1.26,0,0,1,0,2.38L139.49,214A4.58,4.58,0,0,1,135.38,214Z"/><path class="cls-3" d="M141.29,203a19.23,19.23,0,0,1-9.41-2.24c-2.57-1.49-4-3.49-4-5.63s1.42-4.15,4-5.64c5.19-3,13.62-3,18.81,0,2.58,1.49,4,3.49,4,5.64s-1.42,4.14-4,5.63A19.19,19.19,0,0,1,141.29,203Zm0-15.05a18.49,18.49,0,0,0-9,2.16c-2.35,1.36-3.64,3.14-3.64,5s1.29,3.66,3.64,5c5,2.88,13.1,2.88,18.09,0,2.35-1.35,3.64-3.14,3.64-5s-1.29-3.67-3.64-5A18.48,18.48,0,0,0,141.29,188Z"/><path class="cls-3" d="M118.15,189.67a19.16,19.16,0,0,1-9.4-2.25c-2.58-1.49-4-3.49-4-5.63s1.42-4.15,4-5.64c5.18-3,13.62-3,18.8,0h0c2.58,1.49,4,3.49,4,5.64s-1.42,4.14-4,5.63A19.19,19.19,0,0,1,118.15,189.67Zm0-15.06a18.52,18.52,0,0,0-9.05,2.16c-2.35,1.36-3.64,3.14-3.64,5s1.29,3.66,3.64,5c5,2.88,13.11,2.88,18.09,0,2.35-1.35,3.65-3.13,3.65-5s-1.3-3.66-3.65-5h0A18.48,18.48,0,0,0,118.15,174.61Z"/><path class="cls-3" d="M172.13,185.21a19.21,19.21,0,0,1-9.4-2.24c-2.58-1.49-4-3.49-4-5.64s1.43-4.14,4-5.63c5.19-3,13.62-3,18.81,0,2.57,1.49,4,3.49,4,5.63s-1.42,4.15-4,5.64A19.23,19.23,0,0,1,172.13,185.21Zm0-15.05a18.48,18.48,0,0,0-9,2.16c-2.35,1.35-3.64,3.14-3.64,5s1.29,3.67,3.64,5c5,2.88,13.1,2.88,18.09,0,2.35-1.35,3.64-3.14,3.64-5s-1.29-3.66-3.64-5h0A18.49,18.49,0,0,0,172.13,170.16Z"/><path class="cls-3" d="M149,171.86a19.16,19.16,0,0,1-9.4-2.25c-2.58-1.49-4-3.49-4-5.63s1.42-4.15,4-5.64c5.18-3,13.62-3,18.8,0h0c2.58,1.49,4,3.49,4,5.64s-1.42,4.14-4,5.63A19.19,19.19,0,0,1,149,171.86Zm0-15.06A18.52,18.52,0,0,0,140,159c-2.35,1.36-3.64,3.14-3.64,5s1.29,3.66,3.64,5c5,2.88,13.1,2.88,18.09,0,2.35-1.35,3.64-3.13,3.64-5s-1.29-3.66-3.64-5h0A18.48,18.48,0,0,0,149,156.8Z"/><path class="cls-4" d="M143.34,229.58l57.59-33.25c1.13-.65,2-.12,2,1.19v56.32a4.56,4.56,0,0,1-2,3.56l-57.59,33.25c-1.13.65-2.05.12-2.05-1.19V233.14A4.54,4.54,0,0,1,143.34,229.58Z"/><path class="cls-12" d="M146.28,284.72a1.45,1.45,0,0,1-.77-.2,1.87,1.87,0,0,1-.84-1.74V235.37a5,5,0,0,1,2.29-4l49.87-28.8a1.87,1.87,0,0,1,1.93-.14,1.89,1.89,0,0,1,.84,1.74v47.41a5,5,0,0,1-2.29,4l-49.88,28.8A2.32,2.32,0,0,1,146.28,284.72Zm1.16-52.5a4.08,4.08,0,0,0-1.82,3.15v47.41a.79.79,0,0,0,1.34.77l49.87-28.79a4.08,4.08,0,0,0,1.82-3.15V204.2a.8.8,0,0,0-1.34-.78Z"/><path class="cls-4" d="M143.34,295.1l57.59-33.25c1.13-.65,2-.12,2,1.19v8.61a4.56,4.56,0,0,1-2,3.56l-57.54,33.27c-1.14.66-2.06.13-2.07-1.19l0-8.63A4.54,4.54,0,0,1,143.34,295.1Z"/><path class="cls-4" d="M102.73,254.29c0,.69,2.08.06,4.64-1.43l6.13-3.52c2.57-1.49,4.65-3.26,4.65-4v-1.26L102.73,253Z"/><path class="cls-4" d="M226.12,183.05c0,.69,2.08,0,4.65-1.43l6.12-3.52c2.57-1.49,4.65-3.26,4.65-4v-1.26l-15.42,8.91Z"/><path class="cls-4" d="M291.67,185.27c0,.7-2.08.06-4.65-1.42l-6.12-3.53c-2.57-1.48-4.65-3.26-4.65-3.95v-1.26l15.42,8.9Z"/><path class="cls-4" d="M345.66,216.44c0,.7-2.08.06-4.65-1.42l-6.13-3.53c-2.57-1.48-4.65-3.26-4.65-4v-1.26l15.43,8.9Z"/><path class="cls-4" d="M345.66,243.16c0,.69-2.08.05-4.65-1.43l-6.13-3.52c-2.57-1.49-4.65-3.26-4.65-4V233l15.43,8.91Z"/><path class="cls-4" d="M345.66,269.87c0,.7-2.08.06-4.65-1.42l-6.13-3.53c-2.57-1.48-4.65-3.26-4.65-3.95v-1.26l15.43,8.9Z"/><polygon class="cls-7" points="310.95 212.96 364.94 244.12 364.94 246.35 310.95 215.18 310.95 212.96"/><polygon class="cls-7" points="310.95 239.67 364.94 270.84 364.94 273.07 310.95 241.9 310.95 239.67"/></g><g id="Eggs"><path class="cls-13" d="M40.2,211.63l17.33-10a3.41,3.41,0,0,1,3.11,0l43.63,25.18a.94.94,0,0,1,0,1.79L87,238.6a3.41,3.41,0,0,1-3.11,0L40.2,213.43A1,1,0,0,1,40.2,211.63Z"/><path class="cls-8" d="M54.84,210.36c0,2.69-2.18,5.73-4.87,5.73s-4.88-3-4.88-5.73a4.88,4.88,0,0,1,9.75,0Z"/><path class="cls-14" d="M54.84,210.36c0,2.69-2.18,5.73-4.87,5.73s-4.88-3-4.88-5.73a4.88,4.88,0,0,1,9.75,0Z"/><path class="cls-8" d="M63.58,215.4c0,2.69-2.19,5.73-4.88,5.73s-4.87-3-4.87-5.73a4.88,4.88,0,0,1,9.75,0Z"/><path class="cls-14" d="M63.58,215.4c0,2.69-2.19,5.73-4.88,5.73s-4.87-3-4.87-5.73a4.88,4.88,0,0,1,9.75,0Z"/><path class="cls-8" d="M72.31,220.45c0,2.69-2.18,5.73-4.87,5.73s-4.87-3-4.87-5.73a4.87,4.87,0,0,1,9.74,0Z"/><path class="cls-14" d="M72.31,220.45c0,2.69-2.18,5.73-4.87,5.73s-4.87-3-4.87-5.73a4.87,4.87,0,0,1,9.74,0Z"/><path class="cls-8" d="M81.05,225.5c0,2.69-2.18,5.73-4.87,5.73s-4.88-3-4.88-5.73a4.88,4.88,0,0,1,9.75,0Z"/><path class="cls-14" d="M81.05,225.5c0,2.69-2.18,5.73-4.87,5.73s-4.88-3-4.88-5.73a4.88,4.88,0,0,1,9.75,0Z"/><path class="cls-8" d="M89.79,230.56c0,2.69-2.18,5.73-4.88,5.73s-4.87-3-4.87-5.73a4.88,4.88,0,0,1,9.75,0Z"/><path class="cls-14" d="M89.79,230.56c0,2.69-2.18,5.73-4.88,5.73s-4.87-3-4.87-5.73a4.88,4.88,0,0,1,9.75,0Z"/><path class="cls-8" d="M99.43,224.9c0,2.69-2.18,5.72-4.87,5.72s-4.88-3-4.88-5.72a4.88,4.88,0,1,1,9.75,0Z"/><path class="cls-14" d="M99.43,224.9c0,2.69-2.18,5.72-4.87,5.72s-4.88-3-4.88-5.72a4.88,4.88,0,1,1,9.75,0Z"/><path class="cls-8" d="M104.91,222a1.07,1.07,0,0,0-.64-.89L60.64,195.88a3.41,3.41,0,0,0-3.11,0l-17.33,10a1.09,1.09,0,0,0-.64.9c0,.3,0,1.38,0,1.68a1.09,1.09,0,0,0,.64.9l43.64,25.18a3.47,3.47,0,0,0,3.11,0l17.32-10a1.1,1.1,0,0,0,.64-.9Z"/><path class="cls-15" d="M104.91,222a1.07,1.07,0,0,0-.64-.89L60.64,195.88a3.41,3.41,0,0,0-3.11,0l-17.33,10a1.09,1.09,0,0,0-.64.9c0,.3,0,1.38,0,1.68a1.09,1.09,0,0,0,.64.9l43.64,25.18a3.47,3.47,0,0,0,3.11,0l17.32-10a1.1,1.1,0,0,0,.64-.9Z"/><path class="cls-16" d="M85.42,233.23v1.68a3.26,3.26,0,0,1-1.58-.37L40.21,209.36a1.1,1.1,0,0,1-.65-.9c0-.3,0-1.38,0-1.68a1.13,1.13,0,0,0,.65.9l43.63,25.18A3.26,3.26,0,0,0,85.42,233.23Z"/><path class="cls-8" d="M40.2,205.88l17.33-10a3.41,3.41,0,0,1,3.11,0l43.63,25.18a.94.94,0,0,1,0,1.79L87,232.85a3.41,3.41,0,0,1-3.11,0L40.2,207.67A1,1,0,0,1,40.2,205.88Z"/><path class="cls-16" d="M88.28,229.19c1.86-1.08,1.87-2.82,0-3.88a7.5,7.5,0,0,0-6.75,0c-1.87,1.07-1.88,2.81,0,3.88A7.48,7.48,0,0,0,88.28,229.19Z"/><path class="cls-16" d="M97.93,223.62c1.86-1.08,1.86-2.81,0-3.88a7.48,7.48,0,0,0-6.74,0c-1.88,1.07-1.88,2.81,0,3.88A7.5,7.5,0,0,0,97.93,223.62Z"/><path class="cls-16" d="M79.55,224.14c1.86-1.08,1.86-2.81,0-3.88a7.48,7.48,0,0,0-6.74,0c-1.88,1.07-1.88,2.81,0,3.88A7.5,7.5,0,0,0,79.55,224.14Z"/><path class="cls-16" d="M89.19,218.57c1.86-1.08,1.87-2.81,0-3.88a7.5,7.5,0,0,0-6.75,0c-1.87,1.07-1.88,2.81,0,3.88A7.5,7.5,0,0,0,89.19,218.57Z"/><path class="cls-16" d="M70.81,219.09c1.86-1.08,1.87-2.81,0-3.88a7.5,7.5,0,0,0-6.75,0c-1.87,1.07-1.88,2.81,0,3.88A7.5,7.5,0,0,0,70.81,219.09Z"/><path class="cls-16" d="M80.45,213.52c1.86-1.08,1.87-2.81,0-3.88a7.5,7.5,0,0,0-6.75,0c-1.87,1.07-1.88,2.81,0,3.88A7.48,7.48,0,0,0,80.45,213.52Z"/><path class="cls-16" d="M62.07,214c1.86-1.08,1.87-2.81,0-3.88a7.5,7.5,0,0,0-6.75,0c-1.87,1.07-1.88,2.81,0,3.88A7.48,7.48,0,0,0,62.07,214Z"/><path class="cls-16" d="M71.72,208.47c1.86-1.08,1.86-2.81,0-3.88a7.48,7.48,0,0,0-6.74,0c-1.88,1.07-1.89,2.81,0,3.88A7.5,7.5,0,0,0,71.72,208.47Z"/><path class="cls-16" d="M53.34,209c1.86-1.08,1.86-2.81,0-3.88a7.48,7.48,0,0,0-6.74,0c-1.88,1.07-1.89,2.81,0,3.88A7.5,7.5,0,0,0,53.34,209Z"/><path class="cls-16" d="M63,203.42c1.86-1.08,1.87-2.81,0-3.88a7.48,7.48,0,0,0-6.74,0c-1.88,1.07-1.88,2.81,0,3.88A7.5,7.5,0,0,0,63,203.42Z"/><path class="cls-17" d="M99.08,221.59a1.69,1.69,0,0,1,0,.23,3.77,3.77,0,0,1-.15,1,3.16,3.16,0,0,1-1,.84,7.45,7.45,0,0,1-6.74,0,3.21,3.21,0,0,1-1-.83,5,5,0,0,1-.16-1v-.46c0-.2,0-.4,0-.59a9.09,9.09,0,0,1,2.61-5.58,2.67,2.67,0,0,1,3.75,0,9,9,0,0,1,2.6,5.53c0,.21,0,.43,0,.64A1.85,1.85,0,0,1,99.08,221.59Z"/><path class="cls-17" d="M90.34,216.54v.23a4.85,4.85,0,0,1-.15.94,3.18,3.18,0,0,1-1,.85,7.45,7.45,0,0,1-6.74,0,3.42,3.42,0,0,1-1-.84,4.37,4.37,0,0,1-.15-1c0-.07,0-.15,0-.23s0-.16,0-.23,0-.4,0-.6a9.07,9.07,0,0,1,2.61-5.57,2.64,2.64,0,0,1,3.75,0,8.93,8.93,0,0,1,2.6,5.52c0,.22,0,.43,0,.65Z"/><path class="cls-17" d="M89.44,227.16a1.69,1.69,0,0,1,0,.23,3.77,3.77,0,0,1-.15,1,3.16,3.16,0,0,1-1,.84,7.45,7.45,0,0,1-6.74,0,3.21,3.21,0,0,1-1-.83,4.37,4.37,0,0,1-.16-1c0-.07,0-.15,0-.23s0-.15,0-.23,0-.4,0-.59A9,9,0,0,1,83,220.76a2.67,2.67,0,0,1,3.75,0,9,9,0,0,1,2.6,5.53c0,.21,0,.43,0,.64A1.85,1.85,0,0,1,89.44,227.16Z"/><path class="cls-17" d="M80.7,222.11a1.69,1.69,0,0,1,0,.23,3.69,3.69,0,0,1-.15.94,3.18,3.18,0,0,1-1,.85,7.45,7.45,0,0,1-6.74,0,3.37,3.37,0,0,1-1-.84,5.07,5.07,0,0,1-.16-1v-.46c0-.2,0-.4,0-.6a9.07,9.07,0,0,1,2.61-5.57,2.64,2.64,0,0,1,3.75,0,9,9,0,0,1,2.6,5.52c0,.22,0,.43,0,.65A1.69,1.69,0,0,1,80.7,222.11Z"/><path class="cls-17" d="M81.61,211.49a1.85,1.85,0,0,1,0,.23,4.29,4.29,0,0,1-.15.94,3.16,3.16,0,0,1-1,.84,7.45,7.45,0,0,1-6.74,0,3.21,3.21,0,0,1-1-.83,3.86,3.86,0,0,1-.16-1c0-.08,0-.16,0-.23s0-.16,0-.23a5.66,5.66,0,0,1,0-.6,9.08,9.08,0,0,1,2.6-5.58,2.68,2.68,0,0,1,3.76,0,9,9,0,0,1,2.6,5.53c0,.21,0,.43,0,.65A1.69,1.69,0,0,1,81.61,211.49Z"/><path class="cls-17" d="M72.87,206.43a1.69,1.69,0,0,1,0,.23,3.69,3.69,0,0,1-.15.94,3.18,3.18,0,0,1-1,.85,7.45,7.45,0,0,1-6.74,0,3.37,3.37,0,0,1-1-.84,4.38,4.38,0,0,1-.16-1v-.46c0-.2,0-.4,0-.6A9.07,9.07,0,0,1,66.47,200a2.64,2.64,0,0,1,3.75,0,9,9,0,0,1,2.6,5.52c0,.22,0,.43,0,.65A1.69,1.69,0,0,1,72.87,206.43Z"/></g><g id="Cooking_Pot" data-name="Cooking Pot"><path class="cls-13" d="M403,181.87l-33.94,19.59a7.37,7.37,0,0,1-6.66,0l-37.07-21.41c-1.84-1.06-1.84-2.78,0-3.84l33.94-19.59a7.37,7.37,0,0,1,6.66,0L403,178C404.83,179.09,404.83,180.81,403,181.87Z"/><path class="cls-8" d="M324,172.73a2.34,2.34,0,0,1,1.37-1.88l33.94-19.59a7.37,7.37,0,0,1,6.66,0L403,172.67a2.3,2.3,0,0,1,1.37,1.92c0,.65,0,3,0,3.64a2.33,2.33,0,0,1-1.37,1.89l-33.94,19.59a7.37,7.37,0,0,1-6.66,0L325.32,178.3a2.3,2.3,0,0,1-1.37-1.92C324,175.74,323.93,173.39,324,172.73Z"/><path class="cls-16" d="M324,172.73a2.34,2.34,0,0,1,1.37-1.88l33.94-19.59a7.37,7.37,0,0,1,6.66,0L403,172.67a2.3,2.3,0,0,1,1.37,1.92c0,.65,0,3,0,3.64a2.33,2.33,0,0,1-1.37,1.89l-33.94,19.59a7.37,7.37,0,0,1-6.66,0L325.32,178.3a2.3,2.3,0,0,1-1.37-1.92C324,175.74,323.93,173.39,324,172.73Z"/><path class="cls-8" d="M403,176.51,369.05,196.1a7.37,7.37,0,0,1-6.66,0l-37.07-21.4c-1.84-1.07-1.84-2.79,0-3.85l33.94-19.59a7.37,7.37,0,0,1,6.66,0L403,172.67C404.83,173.73,404.83,175.45,403,176.51Z"/><path class="cls-8" d="M365.72,196.9v3.61a6.81,6.81,0,0,0,3.33-.8L403,180.12a2.31,2.31,0,0,0,1.37-1.9c0-.63,0-2.8,0-3.54a2.39,2.39,0,0,1-1.37,1.84L369.05,196.1A6.81,6.81,0,0,1,365.72,196.9Z"/><path class="cls-15" d="M365.72,196.9v3.61a6.81,6.81,0,0,0,3.33-.8L403,180.12a2.31,2.31,0,0,0,1.37-1.9c0-.63,0-2.8,0-3.54a2.39,2.39,0,0,1-1.37,1.84L369.05,196.1A6.81,6.81,0,0,1,365.72,196.9Z"/><path class="cls-13" d="M385.87,160c11.38,6.57,11.38,17.22,0,23.78s-29.81,6.57-41.19,0-11.37-17.21,0-23.78S374.5,153.45,385.87,160Z"/><path class="cls-3" d="M340.73,150.1a.77.77,0,0,0,.38-1.44l-3.12-1.8c-.55-.32-.85-.7-.85-1.09s.39-.92,1.06-1.31L344,141.1a6.37,6.37,0,0,1,5.69-.12l3.12,1.8a.77.77,0,0,0,.77-1.33l-3.12-1.81a7.92,7.92,0,0,0-7.23.12l-5.83,3.37a3.19,3.19,0,0,0-1.83,2.64,2.84,2.84,0,0,0,1.62,2.42l3.13,1.8A.76.76,0,0,0,340.73,150.1Z"/><path class="cls-18" d="M337.61,153.27c0-4.09,2.7-8.18,8.1-11.3,10.81-6.24,28.33-6.24,39.13,0,5.41,3.12,8.11,7.21,8.11,11.29v18c0,4.09-2.7,8.17-8.1,11.29-10.81,6.24-28.33,6.24-39.14,0-5.4-3.12-8.1-7.21-8.1-11.29Z"/><path class="cls-12" d="M384.84,142c10.81,6.24,10.81,16.35,0,22.59s-28.33,6.24-39.14,0-10.81-16.35,0-22.59S374,135.73,384.84,142Z"/><path class="cls-18" d="M383.23,143.32c9.92,5.49,9.92,14.4,0,19.89s-26,5.5-35.91,0-9.91-14.4,0-19.89S373.32,137.82,383.23,143.32Z"/><path class="cls-8" d="M347.32,150.2c9.92-5.49,26-5.49,35.91,0,3.37,1.87,5.59,4.12,6.67,6.51-1.08,2.38-3.3,4.64-6.67,6.5-9.91,5.5-26,5.5-35.91,0-3.36-1.86-5.58-4.12-6.66-6.5C341.74,154.32,344,152.07,347.32,150.2Z"/><path class="cls-3" d="M384.38,174.28a7.68,7.68,0,0,0,3.8-.94L394,170a3.15,3.15,0,0,0,1.82-2.63,2.88,2.88,0,0,0-1.63-2.44l-3.15-1.81a.77.77,0,1,0-.76,1.33l3.14,1.82c.56.32.86.71.86,1.1s-.38.92-1.05,1.3L387.41,172a6.41,6.41,0,0,1-5.69.12l-3.12-1.8a.76.76,0,0,0-1.05.28.77.77,0,0,0,.28,1l3.12,1.8A7,7,0,0,0,384.38,174.28Z"/><path class="cls-19" d="M386.64,157.09a27,27,0,0,0-5.3-19.37c-2.37-3-8.8-5.44-12.5-6.43-3-.79-6.84-1.76-8.45-4.82a6,6,0,0,1-.6-2.71,11.5,11.5,0,0,1,2-6.09C364.09,114,369,111,367.1,106c-.86-2.32-3.07-4.58-5.74-4.4a6.41,6.41,0,0,0-1.79.37,4.7,4.7,0,0,0-2.25,1.78c1.26-.49,4.44-1.34,5.87,2.26s-5.31,7.78-7.93,9.7c-2.92,2.14-5.9,4.67-7,8.25-1,3.13-.08,6.38,1.48,9.16s2.6,5.6,1.89,9.06c-.63,3.08-2.45,5.2-4.52,7.43s-3.93,4.56-3.93,7.79C349.78,167.8,381.62,168.51,386.64,157.09Z"/></g></g><g id="Character"><g id="Character-2" data-name="Character"><g id="Botom"><path class="cls-20" d="M215.1,327.13c3.42,2,7.83,1.93,12,.34L229.89,305l-14.17,1.38Z"/><path class="cls-20" d="M257.42,315.94c2.85,6.32,7.53,4.52,13.24.41l.17-23.27-14.71.77Z"/><path class="cls-18" d="M239.82,349.18c.37.37.18,2.83-.26,3.47s-3.14,2.84-7.84,3c-4.49.19-8.48-.53-11.06-2.28s-3.8-3.63-4-6.2.18-5-1-7c-1.07-1.84-2.8-3.94-3.16-4.94-.78-2.17.12-5.2.12-5.2Z"/><path class="cls-4" d="M228.18,326.52a11.93,11.93,0,0,0,.46,2.86,25.86,25.86,0,0,0,2.58,5.7,22.84,22.84,0,0,0,1.79,2.69c1.31,1.65,3,3,4.34,4.62A9.16,9.16,0,0,1,240,348c.08,3.52-3.77,4.6-6.72,5a21.69,21.69,0,0,1-9.54-.77,8.76,8.76,0,0,1-6.22-7.2c-.14-1,0-2-.13-3a13.88,13.88,0,0,0-2.55-6.23,18.41,18.41,0,0,1-2-3.42c-.86-2.2-.05-4.63.6-6.78.57-1.86,1.2-4,1.86-3.76a2.4,2.4,0,0,0,.12,1.13,4.91,4.91,0,0,1,.48,1.12,9.39,9.39,0,0,0,.49,1.47,3.87,3.87,0,0,0,1.51,1.76c.09-1.32.17-2.65.25-4a1.87,1.87,0,0,1,.35-1.16,1.85,1.85,0,0,1,1.13-.45,24.92,24.92,0,0,1,7.55-.4,1.41,1.41,0,0,1,1,.47,1.48,1.48,0,0,1,.14.91A33.82,33.82,0,0,0,228.18,326.52Z"/><path class="cls-18" d="M295.36,330.2a4.28,4.28,0,0,1-.16,3.13c-.43.92-5.2,3.65-11.66,3.25A26.85,26.85,0,0,1,270.16,332c-2.47-1.61-5-1.9-8.23-2.07s-7.41-1.73-8.12-3.22.08-4.07.08-4.07Z"/><path class="cls-4" d="M269.29,310.5l1.68-.63a1.37,1.37,0,0,1,.95-.11c.41.15.58.64.69,1.06a15.74,15.74,0,0,0,.72,2.8,7.15,7.15,0,0,0,1.82,1.9,30.19,30.19,0,0,0,5.19,3.3c2.12,1.12,4.19,2,6.37,2.95s5.18,1.58,6.93,2.74c2.54,1.69,2.89,6,0,7.69-2.49,1.48-9,3.1-15.91,1.2-3.75-1-7.93-5-12.84-5.37-3.13-.23-9-1.07-11.07-3.43-.75-1.05.22-4.39,1-7.27.87-3.15,1.18-8.07,2.23-7.8.08,1.05,1,1.64,1.54,2.52a18.06,18.06,0,0,1,1.13,2.49,4.62,4.62,0,0,0,1.65,2.14,2.08,2.08,0,0,0,2.53-.16c.91-1,.36-2.62,1-3.77a4,4,0,0,1,2.19-1.45Z"/><path class="cls-12" d="M220.39,162.88c-1.54,24.61-4,78.9-4,78.9-.35,3.05-1.48,10.4-2,21.43-.81,16-.83,51.69-.83,51.69s9,4,16.09,1.24c0,0,8-50.9,10.86-66.61,2.56-13.8,7.55-39.79,7.55-39.79l2.33,33.63a110.31,110.31,0,0,0,.54,20.32c.91,7.29,4.28,39.83,4.28,39.83s9.06,2.7,17.21-.73c0,0,.67-51.7,1-58.42.37-7.66,2-86.43,2-86.43Z"/><path class="cls-18" d="M248,209.74l4.24-20.08s10.12-.58,15.87-6c0,0-1.16,5.49-13.95,8.43l-4.25,20.31-.42,18.89Z"/></g><path class="cls-20" d="M318.93,104.13c-5.38,11-10,19-14.39,26.31-3.35,5.61-8,12.33-13,10.11-2-.87-6.95-5.17-9.15-7.68-13.8-15.73-17.19-24.78-23.24-35l3.52-16.05c9.78-.3,13.1,7.86,18.21,17,4.65,8.27,8.26,14.84,12,20.59,5.65-8.21,13-18.24,16.9-24.06,3.64-5.37,6.93-10,9.95-12.75s7.42-4.5,9.85-1.08,3.75,11.64,1.31,14.65-4.42,3.71-7.15,5.14S319.79,102.37,318.93,104.13Z"/><path class="cls-21" d="M319.42,88.83l-.68,1.2s1.18,4.25-1.11,7.16a6.72,6.72,0,0,0,2.4-2.58s1.66,4.35,2.52,6.07a6.85,6.85,0,0,0,.61.94c.21-.1.43-.19.66-.32.86-.45,1.64-.82,2.39-1.23C323.93,95.65,319.42,88.83,319.42,88.83Z"/><path class="cls-12" d="M317.48,76.28l-4.39,2.46c2.94,5.26,8.69,18,10.75,21.63a3.7,3.7,0,1,0,6.45-3.61C328.23,93.08,320.43,81.55,317.48,76.28Z"/><ellipse class="cls-4" cx="315.28" cy="77.51" rx="2.52" ry="1.45" transform="translate(2.29 163.8) rotate(-29.23)"/><path class="cls-3" d="M315.45,77.81a.34.34,0,0,1-.47-.13L299.77,50.49a.35.35,0,0,1,.13-.48.37.37,0,0,1,.48.13l15.21,27.2A.35.35,0,0,1,315.45,77.81Z"/><path class="cls-3" d="M316.14,77.38a.36.36,0,0,1-.48-.14c-5.38-9.62-5.69-13.24-6-16.44a17.62,17.62,0,0,0-1-5.19c-1-2.79-2.48-4.6-4.24-5.26a5,5,0,0,0-4.11.41.33.33,0,0,1-.47-.13.35.35,0,0,1,.13-.48,5.62,5.62,0,0,1,4.69-.45c2,.73,3.56,2.64,4.66,5.67a18.52,18.52,0,0,1,1.07,5.37c.26,3.13.56,6.67,5.87,16.16A.37.37,0,0,1,316.14,77.38Z"/><path class="cls-3" d="M315.71,76.6a.36.36,0,0,1-.48-.14C310,67.08,308.4,62.62,307.12,59c-.18-.53-.37-1-.55-1.56-1.29-3.51-3.34-5.62-4.8-6.17a1.46,1.46,0,0,0-1.16,0,.33.33,0,0,1-.47-.13.35.35,0,0,1,.13-.48,2.06,2.06,0,0,1,1.74,0c1.5.55,3.76,2.61,5.21,6.58.19.52.37,1,.56,1.57,1.27,3.56,2.84,8,8.06,17.32A.35.35,0,0,1,315.71,76.6Z"/><path class="cls-3" d="M314.52,74.43a.35.35,0,0,1-.47-.14c-2.86-5.11-2.8-9.16-2.75-12.73,0-3,.08-5.51-1.43-8.21-1.89-3.37-4.93-4.54-8.13-3.15a.34.34,0,0,1-.46-.18.35.35,0,0,1,.18-.46c3.57-1.55,6.94-.26,9,3.45,1.6,2.87,1.56,5.63,1.52,8.56C312,65.05,311.89,69,314.66,74A.36.36,0,0,1,314.52,74.43Z"/><path class="cls-3" d="M314.73,78.16a.35.35,0,0,1-.48-.13c-5.31-9.49-8.17-11.6-10.7-13.46a18.36,18.36,0,0,1-4-3.72c-2-2.52-2.8-4.86-2.39-6.94A5.63,5.63,0,0,1,300,50.15a.36.36,0,0,1,.48.14.35.35,0,0,1-.14.47,4.93,4.93,0,0,0-2.49,3.29c-.37,1.84.41,4,2.25,6.36A17.5,17.5,0,0,0,304,64c2.58,1.9,5.51,4.06,10.89,13.68A.34.34,0,0,1,314.73,78.16Z"/><path class="cls-3" d="M314.29,77.39a.36.36,0,0,1-.48-.13c-5.22-9.34-8.17-13-10.55-15.94l-1-1.29c-2.62-3.32-3.19-6.32-2.88-7.88a2.09,2.09,0,0,1,.93-1.48.36.36,0,0,1,.48.14.35.35,0,0,1-.14.47,1.46,1.46,0,0,0-.59,1c-.3,1.53.43,4.38,2.75,7.31l1,1.29c2.4,3,5.37,6.65,10.62,16A.34.34,0,0,1,314.29,77.39Z"/><path class="cls-3" d="M313.06,75.25a.36.36,0,0,1-.48-.14c-2.77-4.94-6.16-7-9.16-8.75-2.52-1.49-4.89-2.9-6.49-5.77-2.08-3.71-1.42-7.26,1.77-9.49a.35.35,0,0,1,.4.58c-2.86,2-3.45,5.2-1.56,8.57,1.51,2.7,3.7,4,6.24,5.51,3.07,1.83,6.55,3.9,9.41,9A.35.35,0,0,1,313.06,75.25Z"/><path class="cls-20" d="M322.83,80.46c-2.23,1.89-2.8,6.88-2.23,9.61S322.35,96.12,324,97s5.86-.87,5.86-.87Z"/><path class="cls-21" d="M320.55,89.79c-.14-1.79,1.26-2.42,2.28-4.12s0-3.9-.34-4.88C320.61,82.8,320.1,87.16,320.55,89.79Z"/><path class="cls-20" d="M310.56,94.32c.67-2.34,2.1-7.09,3.39-8.58s4.61-3.66,6.51-5.56,3.4,2.78,1.46,5.09A27.65,27.65,0,0,0,318.74,90Z"/><path class="cls-7" d="M259.86,81.54c4.11-.11,8.69-1.13,13.49,4.39S293,118.51,293,118.51l5.14-7.76,13.11,9.94s-8.73,15-11.56,18.41-6.91,4.21-11.27.93-25.69-30.1-25.69-30.1Z"/><polygon class="cls-4" points="295.57 114.61 308.92 124.62 308.39 125.5 295.57 114.61"/><path class="cls-2" d="M226.21,82.59s-12.51,1.87-11.9,18.25l3.8,29.59,1.53,35.83c8.07,9.15,43.87,8.48,56.13-.73,0,0,.82-45.82,0-63.64-.59-12.67-5.08-20.89-18.37-20.36l-15.12.09Z"/><path class="cls-20" d="M185,132.54,219,108c8.79-7.77,8.2-21.42,7.18-25.36-8.45.22-13.76.55-27.09,13.08-9,8.46-27.5,24.07-31.14,29"/><path class="cls-7" d="M228.32,82.46c-11.39-.61-12.5-1.24-24.51,7.45s-35.56,31.81-37,34.24L185,132.54l36.51-23.82S229.29,99.19,228.32,82.46Z"/><path class="cls-4" d="M258.53,101.3a1.65,1.65,0,1,1,1.64,1.65A1.64,1.64,0,0,1,258.53,101.3Z"/><circle class="cls-4" cx="260.62" cy="112.96" r="1.65"/><path class="cls-4" d="M259.42,124.62a1.65,1.65,0,1,1,1.64,1.64A1.64,1.64,0,0,1,259.42,124.62Z"/><path class="cls-4" d="M259.86,136.27a1.65,1.65,0,1,1,1.65,1.65A1.64,1.64,0,0,1,259.86,136.27Z"/><path class="cls-4" d="M260.3,147.93a1.65,1.65,0,1,1,3.29,0,1.65,1.65,0,0,1-3.29,0Z"/><path class="cls-4" d="M260.75,159.58a1.65,1.65,0,1,1,1.64,1.65A1.64,1.64,0,0,1,260.75,159.58Z"/><circle class="cls-4" cx="246.56" cy="102.48" r="1.65"/><path class="cls-4" d="M245.36,114.14a1.65,1.65,0,1,1,3.29,0,1.65,1.65,0,0,1-3.29,0Z"/><path class="cls-4" d="M245.81,125.79a1.65,1.65,0,1,1,1.64,1.65A1.64,1.64,0,0,1,245.81,125.79Z"/><path class="cls-4" d="M246.25,137.45a1.65,1.65,0,1,1,1.65,1.65A1.65,1.65,0,0,1,246.25,137.45Z"/><path class="cls-4" d="M246.69,149.11a1.65,1.65,0,1,1,1.65,1.64A1.65,1.65,0,0,1,246.69,149.11Z"/><path class="cls-4" d="M247.14,160.76a1.65,1.65,0,0,1,3.29,0,1.65,1.65,0,1,1-3.29,0Z"/><path class="cls-3" d="M250.27,92.28c6.26.93,15,.81,15.4,4.58.31,3,3.05,69.82,4.19,69.38s-2.51-64.34-2.57-67.81c-.06-3.7-.69-4.66-4.15-5.4S250.27,92.28,250.27,92.28Z"/><path class="cls-18" d="M237.75,48.55c0,9.41,7.32,17,16.34,17s15-7.72,16.35-17c2.17-15.3-7.32-17-16.35-17S237.75,39.15,237.75,48.55Z"/><path class="cls-18" d="M229.4,55.44s2.51,12.27,3.52,14.29A5.37,5.37,0,0,0,236,72.32l-.17-8.63Z"/><path class="cls-18" d="M232.55,37.86s-1.8-.45-3.71,2.54c-1.63,2.56-2,8.3.56,15l4.73.57Z"/><path class="cls-20" d="M235.54,56c-.94.59-2.29-1.31-3.46-2.58s-4.84-2.47-6.74,1.7,1.34,8.3,4.06,9.66c4.88,2.42,6.43-1.1,6.43-1.1l.39,19.43c6.87,10.62,22.54,12,16.83-.51V76.69s4.68.74,7,.37c3.81-.61,6.2-3.73,7.35-8,1.86-6.89,2.56-12.46,1-26C266.62,28.19,250,28,241.08,33.9S235.54,56,235.54,56Z"/><path class="cls-18" d="M256.21,42a27.92,27.92,0,0,1-5.75-.71A18.41,18.41,0,0,1,244.53,39a9.69,9.69,0,0,1-4.82,7.66,3,3,0,0,0-1.37,1.12,3,3,0,0,0,.07,1.9,4.5,4.5,0,0,1-.1,1.79,28.75,28.75,0,0,1-1.08,4.67,2.52,2.52,0,0,1-1.13,1.55c-1.1.48-1.42-.92-1.88-1.55a19,19,0,0,0-2.14-2.75c-.77-.72-.89-2.28-1.06-3.25-.3-1.76-.47-3.55-.6-5.33-.12-1.51-.27-3-.26-4.56a20.6,20.6,0,0,1,.4-5.08c.77-3.05,3.84-5.54,6.52-6.94,7.84-4.12,16.94-2.95,25.46-2.7a5.5,5.5,0,0,1,3.42.86c1.26,1,1.35,2.88,1.35,4.5,0,.49.91,1.59,1.07,2.18a6.67,6.67,0,0,1,.12,2.74,5.13,5.13,0,0,1-3.13,4A18.27,18.27,0,0,1,257.45,42C257,42,256.62,42,256.21,42Z"/><path class="cls-21" d="M253,76.69s-8.5-1.78-11.46-3.42A10,10,0,0,1,237.47,69a14.36,14.36,0,0,0,2.33,5c2.17,2.89,13.24,5,13.24,5Z"/><path class="cls-18" d="M251,53.8A1.71,1.71,0,1,1,249.29,52,1.78,1.78,0,0,1,251,53.8Z"/><path class="cls-18" d="M248.26,46.46l-3.64,2.09a2.34,2.34,0,0,1,.85-3A2,2,0,0,1,248.26,46.46Z"/><path class="cls-21" d="M252.27,66l3.88,1.52a2,2,0,0,1-2.64,1.34A2.29,2.29,0,0,1,252.27,66Z"/><path class="cls-18" d="M266.61,48l-3.32-2.66a2,2,0,0,1,2.88-.46A2.35,2.35,0,0,1,266.61,48Z"/><path class="cls-18" d="M265.15,53.29a1.7,1.7,0,1,1-1.7-1.84A1.77,1.77,0,0,1,265.15,53.29Z"/><polygon class="cls-21" points="256.04 51.87 256.24 62.62 262.34 61.22 256.04 51.87"/><path class="cls-7" d="M234.73,82.18V76.87c0-1.59,1.34-1.25,1.34-1.25l.07,2.75A17.91,17.91,0,0,0,240.8,84c4.41,3.18,7.37,2.78,7.37,2.78l.93,4.8s-5.44.19-8.72-1.87A12.34,12.34,0,0,1,234.73,82.18Z"/><path class="cls-7" d="M250.64,91.5l.83-4.75s1.55-.76,1.58-2,0-2.09,0-2.09V77.12a1.23,1.23,0,0,1,1.4,1.08c.11,1,.57,8.16.57,8.16S256.14,90.94,250.64,91.5Z"/><path class="cls-8" d="M188.34,121.21a36.79,36.79,0,0,0,66.29,31.92Z"/><path class="cls-15" d="M188.34,121.21a36.79,36.79,0,0,0,66.29,31.92Z"/><path class="cls-8" d="M204.57,112.35c-16.55,1.24-22.38,13.36-13,27.06S221.86,163.23,238.4,162s22.38-13.36,13-27.06S221.11,111.11,204.57,112.35Z"/><path class="cls-8" d="M205.72,114.9c-15.05.86-20.19,11.53-11.48,23.83s28,21.57,43,20.71,20.19-11.53,11.48-23.83S220.77,114,205.72,114.9Z"/><path class="cls-15" d="M205.72,114.9c-15.05.86-20.19,11.53-11.48,23.83s28,21.57,43,20.71,20.19-11.53,11.48-23.83S220.77,114,205.72,114.9Z"/><path class="cls-16" d="M205.72,114.9c-15.05.86-20.19,11.53-11.48,23.83a35.11,35.11,0,0,0,2.2,2.77c0-.05,4.82-6.43,11-14.85,4.15-5.67,12.24-9.19,21.89-6.47C221.59,116.52,213.14,114.47,205.72,114.9Z"/><path class="cls-22" d="M191.25,133.32a25.8,25.8,0,0,0,3,5.41c8.71,12.3,28,21.57,43,20.71a24.72,24.72,0,0,0,7.46-1.49c.79-3.81-.13-8.29-3-12.92-7.27-11.61-24.21-19.76-37.82-18.21C198,127.49,193.64,129.88,191.25,133.32Z"/><path class="cls-23" d="M244.71,158a13.6,13.6,0,0,0,.27-2.88c-6.73,2.89-17.29,1.27-30.19-6.45s-15.65-17.71-7.39-22a31.91,31.91,0,0,0-3.54.17c-5.91.67-10.22,3.06-12.61,6.5a25.8,25.8,0,0,0,3,5.41c8.71,12.3,28,21.57,43,20.71A24.72,24.72,0,0,0,244.71,158Z"/><path class="cls-20" d="M211.68,163.67a25.83,25.83,0,0,1-6.64-4.91,18.89,18.89,0,0,0,4.6.41,2.76,2.76,0,0,0,2.76-2.56c0-.6-1.51-.44-3.75-1.39-2.87-1.22-4.66-2.45-8-2.95a6.51,6.51,0,0,1-5-2.36c-7.27-8-9.53-14-10.71-17.37l-17.19-7.67c-3.2,4.61-1.38,7.75,4.05,16.84,3.14,5.25,4.56,7.41,10.71,14.77a87.26,87.26,0,0,0,8.7,9.21c8.77,7.9,14.7,9.73,19.33,7.69C218,170.11,217.31,166.59,211.68,163.67Z"/><path class="cls-7" d="M185,132.54l-18.15-8.39c-1.43,2.42-2,3.76-.68,8.39s8.06,14.51,8.06,14.51l13-9.13Z"/><polygon class="cls-4" points="171.62 143.07 185.94 134.94 172.2 143.99 171.62 143.07"/><path class="cls-8" d="M227.85,50c.51-.55,1.08-1.09,1.67-1.61a37.41,37.41,0,0,1,11.4-6.66h0c9.65-3.67,24.68-5,29.46-1.06L263.29,2.08c-9-3.21-20.5-2.59-30.15,1.08h0a37.76,37.76,0,0,0-11.4,6.67,21.29,21.29,0,0,0-1.67,1.61Z"/><path class="cls-16" d="M227.85,50c.51-.55,1.08-1.09,1.67-1.61a37.41,37.41,0,0,1,11.4-6.66h0c9.65-3.67,24.68-5,29.46-1.06l-1.76-9.65c-4.78-3.92-19.81-2.61-29.46,1.06h0a37.64,37.64,0,0,0-11.4,6.67c-.59.52-1.32,1.18-1.84,1.73Z"/><g class="cls-24"><path d="M265.6,25.87c-.78-4.42-3.54-20.14-3.54-20.14s-.08-.43-.17-1a1.65,1.65,0,0,0-1.05-1.23c-.49-.13-.8.3-.69.94l3.69,21a1.66,1.66,0,0,0,1.09,1.31C265.41,26.91,265.71,26.5,265.6,25.87Z"/><path d="M255.77,3.91l3.71,21.17a1.36,1.36,0,0,0,1.06,1.18c.47,0,.76-.46.65-1.09L257.48,4a1.44,1.44,0,0,0-1.06-1.23C256,2.78,255.65,3.27,255.77,3.91Z"/><path d="M251.48,3.9l3.73,21.25c.11.63.57,1.12,1,1.1s.75-.54.63-1.17L253.16,3.85c-.11-.63-.58-1.14-1-1.13S251.37,3.26,251.48,3.9Z"/><path d="M247.25,4.25,251,25.57c.12.63.57,1.09,1,1s.74-.61.63-1.24l-3.74-21.3c-.11-.63-.57-1.11-1-1.06S247.14,3.61,247.25,4.25Z"/><path d="M243.08,4.9l3.75,21.37c.11.64.57,1.08,1,1a1.05,1.05,0,0,0,.61-1.3L244.72,4.61c-.12-.63-.57-1.09-1-1S243,4.27,243.08,4.9Z"/><path d="M239,5.84l3.76,21.44c.11.63.56,1,1,.92a1.15,1.15,0,0,0,.6-1.36L240.57,5.43c-.11-.63-.56-1.06-1-.95A1.14,1.14,0,0,0,239,5.84Z"/><path d="M234.82,6.21a3.27,3.27,0,0,0,.07.91l3.78,21.53c.11.63.45,1.05.75.93l.54-.21.25-.08c.14,0,.16-.6,0-1.23L236.49,6.57c-.12-.63-.5-1.05-.87-.92l-.54.19A.47.47,0,0,0,234.82,6.21Z"/><path d="M230.91,8.84l3.79,21.61c.11.64.55,1,1,.76a1.46,1.46,0,0,0,.58-1.52L232.47,8.11c-.11-.63-.56-1-1-.79A1.44,1.44,0,0,0,230.91,8.84Z"/><path d="M227,11l3.81,21.73c.11.63.54.91,1,.64a1.71,1.71,0,0,0,.56-1.62l-3.81-21.68c-.11-.64-.55-.95-1-.69A1.68,1.68,0,0,0,227,11Z"/><path d="M223.14,12.77a3.07,3.07,0,0,0,.08,1.13l3.91,21.83c.12.64.45.92.76.64l.57-.49.14-.11a3.14,3.14,0,0,0-.07-1.25L224.7,12.68c-.11-.63-.44-1-.73-.73l-.52.43A1.27,1.27,0,0,0,223.14,12.77Z"/></g><path class="cls-16" d="M225.92,40.51c.52-.55,1.25-1.21,1.84-1.73a37.64,37.64,0,0,1,11.4-6.67h0a56.6,56.6,0,0,1,13-3.07,51.7,51.7,0,0,0-14.74,4.3c-4.67,2.29-9.87,5.85-11.3,8.08Z"/></g></g><g id="Shelves"><polygon id="Shadow-3" data-name="Shadow" class="cls-3" points="33.04 79.03 33.04 99.24 97.4 62.08 97.4 42.41 33.04 79.03"/><polygon id="Shadow-4" data-name="Shadow" class="cls-3" points="33.04 128.8 33.04 149.01 97.4 111.85 97.4 92.18 33.04 128.8"/><polygon id="Shadow-5" data-name="Shadow" class="cls-3" points="430.13 60.01 430.13 80.22 365.77 43.06 365.77 23.39 430.13 60.01"/><g id="Cans"><g id="Shelf"><path class="cls-8" d="M121.94,107.52v-3.6h0a1.22,1.22,0,0,0-.72-1L99.51,90.51a3.69,3.69,0,0,0-3.33,0L33.76,126.32a1.24,1.24,0,0,0-.71,1h0v3.6h0a1.22,1.22,0,0,0,.71,1l21.71,12.46a3.71,3.71,0,0,0,3.34,0l62.41-35.81a1.23,1.23,0,0,0,.72-1Z"/><path class="cls-9" d="M121.94,107.52v-3.6h0a1.22,1.22,0,0,0-.72-1L99.51,90.51a3.69,3.69,0,0,0-3.33,0L33.76,126.32a1.24,1.24,0,0,0-.71,1h0v3.6h0a1.22,1.22,0,0,0,.71,1l21.71,12.46a3.71,3.71,0,0,0,3.34,0l62.41-35.81a1.23,1.23,0,0,0,.72-1Z"/><path class="cls-8" d="M33.76,128.24,55.47,140.7a3.71,3.71,0,0,0,3.34,0l62.41-35.82a1,1,0,0,0,0-1.91L99.51,90.51a3.69,3.69,0,0,0-3.33,0L33.76,126.32A1,1,0,0,0,33.76,128.24Z"/><path class="cls-11" d="M33.76,128.24,55.47,140.7a3.71,3.71,0,0,0,3.34,0l62.41-35.82a1,1,0,0,0,0-1.91L99.51,90.51a3.69,3.69,0,0,0-3.33,0L33.76,126.32A1,1,0,0,0,33.76,128.24Z"/><path class="cls-8" d="M57.14,141.1v3.59a3.45,3.45,0,0,1-1.66-.4L33.76,131.84a1.21,1.21,0,0,1-.71-1h0v-3.6h0a.9.9,0,0,1,.13-.4c-.25.46-.06,1,.58,1.36L55.48,140.7A3.32,3.32,0,0,0,57.14,141.1Z"/><path class="cls-25" d="M57.14,141.1v3.59a3.45,3.45,0,0,1-1.66-.4L33.76,131.84a1.21,1.21,0,0,1-.71-1h0v-3.6h0a.9.9,0,0,1,.13-.4c-.25.46-.06,1,.58,1.36L55.48,140.7A3.32,3.32,0,0,0,57.14,141.1Z"/></g><path class="cls-26" d="M93.36,105.36a15.91,15.91,0,0,0,14.38,0c4-2.29,4-6,0-8.31a15.91,15.91,0,0,0-14.38,0C89.39,99.35,89.39,103.07,93.36,105.36Z"/><path class="cls-27" d="M110.15,101.15h0V84H93v17.15h0c-.07,1.32.75,2.65,2.5,3.66a13.39,13.39,0,0,0,12.14,0C109.39,103.8,110.22,102.47,110.15,101.15Z"/><path class="cls-6" d="M95.5,87.51a13.45,13.45,0,0,0,12.14,0c3.36-1.94,3.36-5.08,0-7a13.39,13.39,0,0,0-12.14,0C92.15,82.43,92.15,85.57,95.5,87.51Z"/><path class="cls-27" d="M95.87,87.22a12.84,12.84,0,0,0,11.4,0c3.15-1.78,3.15-4.66,0-6.44a12.9,12.9,0,0,0-11.4,0C92.72,82.56,92.72,85.44,95.87,87.22Z"/><path class="cls-5" d="M107.27,81.62a12.84,12.84,0,0,0-11.4,0,4.2,4.2,0,0,0-2.33,2.8,4.2,4.2,0,0,0,2.33,2.8,12.84,12.84,0,0,0,11.4,0,4.2,4.2,0,0,0,2.33-2.8A4.2,4.2,0,0,0,107.27,81.62Z"/><path class="cls-8" d="M93,98.25c0,1.28.82,2.56,2.51,3.53a13.39,13.39,0,0,0,12.14,0c1.68-1,2.52-2.24,2.52-3.5V86.8c0,1.27-.84,2.53-2.52,3.5a13.39,13.39,0,0,1-12.14,0c-1.69-1-2.53-2.25-2.51-3.53Z"/><path class="cls-26" d="M105.09,105.83a13.59,13.59,0,0,1-9.59-1c-1.74-1-2.57-2.34-2.5-3.66h0V84c0,1.27.85,2.54,2.52,3.51a5.33,5.33,0,0,0,.83.41v15.32C96.33,104.67,101.12,106.37,105.09,105.83Z"/><path class="cls-3" d="M103.53,87.06l-.91-.53c-.74-.42-.94-1-.44-1.29a2.58,2.58,0,0,1,2.23.26l.92.52c.74.43.93,1,.44,1.3A2.6,2.6,0,0,1,103.53,87.06Z"/><ellipse class="cls-5" cx="103.07" cy="85.76" rx="0.69" ry="0.4"/><path class="cls-5" d="M104.38,87a1.12,1.12,0,0,0,1,0,.3.3,0,0,0,0-.57,1.06,1.06,0,0,0-1,0A.3.3,0,0,0,104.38,87Z"/><path class="cls-26" d="M77.7,114.38a15.91,15.91,0,0,0,14.38,0c4-2.29,4-6,0-8.3a15.91,15.91,0,0,0-14.38,0C73.73,108.37,73.73,112.09,77.7,114.38Z"/><path class="cls-27" d="M94.48,110.17h0V93H77.33v17.14h0c-.07,1.32.75,2.66,2.5,3.66a13.39,13.39,0,0,0,12.14,0C93.73,112.83,94.56,111.49,94.48,110.17Z"/><path class="cls-6" d="M79.84,96.53a13.39,13.39,0,0,0,12.14,0c3.36-1.93,3.36-5.07,0-7a13.39,13.39,0,0,0-12.14,0C76.49,91.46,76.49,94.6,79.84,96.53Z"/><ellipse class="cls-27" cx="85.91" cy="93.03" rx="8.06" ry="4.55"/><path class="cls-5" d="M91.61,90.64a12.84,12.84,0,0,0-11.4,0,4.2,4.2,0,0,0-2.33,2.8,4.22,4.22,0,0,0,2.33,2.81,12.9,12.9,0,0,0,11.4,0,4.22,4.22,0,0,0,2.33-2.81A4.2,4.2,0,0,0,91.61,90.64Z"/><path class="cls-4" d="M77.33,107.27c0,1.28.82,2.56,2.51,3.53a13.39,13.39,0,0,0,12.14,0c1.68-1,2.52-2.23,2.52-3.5V95.82c0,1.27-.84,2.54-2.52,3.51a13.45,13.45,0,0,1-12.14,0c-1.69-1-2.53-2.26-2.51-3.54Z"/><path class="cls-26" d="M89.43,114.85a13.59,13.59,0,0,1-9.59-1c-1.74-1-2.57-2.34-2.5-3.66h0V93c0,1.27.85,2.54,2.52,3.5a6.46,6.46,0,0,0,.83.42v15.31C80.67,113.69,85.46,115.4,89.43,114.85Z"/><path class="cls-3" d="M87.87,96.08,87,95.56c-.74-.43-.94-1-.44-1.29a2.57,2.57,0,0,1,2.23.25l.92.53c.73.42.93,1,.44,1.29A2.6,2.6,0,0,1,87.87,96.08Z"/><path class="cls-5" d="M86.92,95.06a1.06,1.06,0,0,0,1,0,.29.29,0,0,0,0-.56,1.06,1.06,0,0,0-1,0A.29.29,0,0,0,86.92,95.06Z"/><path class="cls-5" d="M88.72,96a1.12,1.12,0,0,0,1,0,.3.3,0,0,0,0-.57,1.12,1.12,0,0,0-1,0A.3.3,0,0,0,88.72,96Z"/><path class="cls-26" d="M46.38,132.43a15.91,15.91,0,0,0,14.38,0c4-2.3,4-6,0-8.31a15.91,15.91,0,0,0-14.38,0C42.41,126.42,42.41,130.13,46.38,132.43Z"/><path class="cls-27" d="M63.16,128.22h0V111.07H46v17.15h0c-.07,1.32.75,2.65,2.5,3.66a13.39,13.39,0,0,0,12.14,0C62.41,130.87,63.24,129.54,63.16,128.22Z"/><path class="cls-6" d="M48.52,114.58a13.45,13.45,0,0,0,12.14,0c3.36-1.94,3.36-5.08,0-7a13.39,13.39,0,0,0-12.14,0C45.17,109.5,45.17,112.64,48.52,114.58Z"/><path class="cls-27" d="M48.89,114.29a12.84,12.84,0,0,0,11.4,0c3.15-1.78,3.15-4.66,0-6.44a12.9,12.9,0,0,0-11.4,0C45.74,109.63,45.74,112.51,48.89,114.29Z"/><path class="cls-5" d="M60.29,108.69a12.84,12.84,0,0,0-11.4,0,4.2,4.2,0,0,0-2.33,2.8,4.2,4.2,0,0,0,2.33,2.8,12.84,12.84,0,0,0,11.4,0,4.2,4.2,0,0,0,2.33-2.8A4.2,4.2,0,0,0,60.29,108.69Z"/><path class="cls-8" d="M46,125.32c0,1.28.83,2.56,2.52,3.53a13.39,13.39,0,0,0,12.14,0c1.68-1,2.52-2.24,2.52-3.5V113.87c0,1.27-.84,2.53-2.52,3.5a13.39,13.39,0,0,1-12.14,0c-1.69-1-2.53-2.25-2.52-3.53Z"/><path class="cls-28" d="M46,125.32c0,1.28.83,2.56,2.52,3.53a13.39,13.39,0,0,0,12.14,0c1.68-1,2.52-2.24,2.52-3.5V113.87c0,1.27-.84,2.53-2.52,3.5a13.39,13.39,0,0,1-12.14,0c-1.69-1-2.53-2.25-2.52-3.53Z"/><path class="cls-26" d="M58.11,132.89a13.53,13.53,0,0,1-9.59-1c-1.75-1-2.57-2.34-2.5-3.67h0V111.07c0,1.27.84,2.54,2.52,3.51a8,8,0,0,0,.83.41v15.32C49.35,131.74,54.14,133.44,58.11,132.89Z"/><path class="cls-3" d="M56.55,114.13l-.91-.53c-.74-.42-.94-1-.44-1.29a2.58,2.58,0,0,1,2.23.26l.91.52c.74.43.94,1,.45,1.29A2.56,2.56,0,0,1,56.55,114.13Z"/><path class="cls-5" d="M55.6,113.11a1.06,1.06,0,0,0,1,0,.3.3,0,0,0,0-.57,1.12,1.12,0,0,0-1,0A.3.3,0,0,0,55.6,113.11Z"/><path class="cls-5" d="M57.4,114.08a1.06,1.06,0,0,0,1,0c.27-.15.27-.4,0-.56a1.06,1.06,0,0,0-1,0C57.13,113.68,57.13,113.93,57.4,114.08Z"/></g><g id="Bottles"><g id="Shelf-2" data-name="Shelf"><path class="cls-8" d="M122.08,56.33V52.74h0a1.24,1.24,0,0,0-.71-1L99.65,39.32a3.71,3.71,0,0,0-3.34,0L33.9,75.14a1.23,1.23,0,0,0-.72,1h0v3.59h0a1.23,1.23,0,0,0,.72,1L55.61,93.11a3.69,3.69,0,0,0,3.33,0l62.42-35.82a1.24,1.24,0,0,0,.71-1Z"/><path class="cls-9" d="M122.08,56.33V52.74h0a1.24,1.24,0,0,0-.71-1L99.65,39.32a3.71,3.71,0,0,0-3.34,0L33.9,75.14a1.23,1.23,0,0,0-.72,1h0v3.59h0a1.23,1.23,0,0,0,.72,1L55.61,93.11a3.69,3.69,0,0,0,3.33,0l62.42-35.82a1.24,1.24,0,0,0,.71-1Z"/><path class="cls-8" d="M33.9,77.05,55.61,89.51a3.69,3.69,0,0,0,3.33,0L121.36,53.7a1,1,0,0,0,0-1.92L99.65,39.32a3.71,3.71,0,0,0-3.34,0L33.9,75.14A1,1,0,0,0,33.9,77.05Z"/><path class="cls-11" d="M33.9,77.05,55.61,89.51a3.69,3.69,0,0,0,3.33,0L121.36,53.7a1,1,0,0,0,0-1.92L99.65,39.32a3.71,3.71,0,0,0-3.34,0L33.9,75.14A1,1,0,0,0,33.9,77.05Z"/><path class="cls-8" d="M57.27,89.91v3.6a3.45,3.45,0,0,1-1.66-.4L33.9,80.65a1.23,1.23,0,0,1-.72-1h0V76.1h0a.84.84,0,0,1,.14-.41c-.26.47-.07,1,.58,1.37L55.61,89.51A3.32,3.32,0,0,0,57.27,89.91Z"/><path class="cls-25" d="M57.27,89.91v3.6a3.45,3.45,0,0,1-1.66-.4L33.9,80.65a1.23,1.23,0,0,1-.72-1h0V76.1h0a.84.84,0,0,1,.14-.41c-.26.47-.07,1,.58,1.37L55.61,89.51A3.32,3.32,0,0,0,57.27,89.91Z"/></g><path class="cls-26" d="M93.79,55.31c-3.31-1.9-3.31-5,0-6.87a13.43,13.43,0,0,1,12,0c3.32,1.9,3.32,5,0,6.87A13.43,13.43,0,0,1,93.79,55.31Z"/><path class="cls-2" d="M106.12,25.88a8,8,0,0,0-1.1-.53,1.87,1.87,0,0,1-1.2-1.73V20.49H96.91v3.13a1.87,1.87,0,0,1-1.2,1.73,7.46,7.46,0,0,0-1.1.53,4.92,4.92,0,0,0-2.39,3.92v21c0,1.2.8,2.41,2.39,3.32a12.69,12.69,0,0,0,11.51,0,4,4,0,0,0,2.38-3.32v-21A4.9,4.9,0,0,0,106.12,25.88Z"/><path class="cls-8" d="M106.12,34.11a12.79,12.79,0,0,1-11.5,0c-1.59-.9-2.39-2.09-2.39-3.28v14.9c0,1.19.8,2.38,2.39,3.29a12.79,12.79,0,0,0,11.5,0c1.59-.91,2.38-2.1,2.38-3.29V30.83C108.5,32,107.71,33.21,106.12,34.11Z"/><path class="cls-29" d="M94.85,50.87V30.29a3.1,3.1,0,0,1,1.41-3C98.64,26.12,99,25.15,99,23.92V20.49h-2v3.13a1.87,1.87,0,0,1-1.2,1.73,7.46,7.46,0,0,0-1.1.53,4.92,4.92,0,0,0-2.39,3.92v21c0,1.2.8,2.41,2.39,3.32a12.72,12.72,0,0,0,8.45,1.11C96.45,55.71,94.85,52.9,94.85,50.87Z"/><path class="cls-12" d="M104,19.56v.93a1.86,1.86,0,0,1-1.1,1.52,5.83,5.83,0,0,1-5.27,0,2.49,2.49,0,0,1-.81-.71,1.35,1.35,0,0,1-.28-.81v-.93a1,1,0,0,1,0-.25A2,2,0,0,1,97.66,18l.06,0a5.86,5.86,0,0,1,5.21,0A2,2,0,0,1,104,19.3,1.22,1.22,0,0,1,104,19.56Z"/><path class="cls-18" d="M97.66,21.08c-1.45-.84-1.45-2.2,0-3a5.83,5.83,0,0,1,5.27,0c1.46.84,1.46,2.2,0,3A5.83,5.83,0,0,1,97.66,21.08Z"/><path class="cls-12" d="M104,16.71V19a1.09,1.09,0,0,1,0,.26,2,2,0,0,1-1.07,1.27,5,5,0,0,1-2.33.62,5.49,5.49,0,0,1-2.94-.62,2.49,2.49,0,0,1-.81-.71,1.43,1.43,0,0,1-.25-.55,1.15,1.15,0,0,1,0-.26V16.71a1.86,1.86,0,0,1,1.09-1.53l.2-.1a5.85,5.85,0,0,1,5.07.1A1.88,1.88,0,0,1,104,16.71Z"/><path class="cls-4" d="M104,16.7c0,1.18-1.67,2.14-3.73,2.14s-3.73-1-3.73-2.14,1.67-2.15,3.73-2.15S104,15.51,104,16.7Z"/><path class="cls-26" d="M63.6,72.45c-3.32-1.89-3.32-5,0-6.86a13.34,13.34,0,0,1,12,0c3.32,1.9,3.32,5,0,6.86A13.37,13.37,0,0,1,63.6,72.45Z"/><path class="cls-8" d="M75.92,43a7.46,7.46,0,0,0-1.1-.53,1.88,1.88,0,0,1-1.2-1.74V37.64H66.71v3.12a1.88,1.88,0,0,1-1.2,1.74,8,8,0,0,0-1.1.53A4.88,4.88,0,0,0,62,47V68c0,1.2.79,2.4,2.38,3.32a12.75,12.75,0,0,0,11.51,0c1.59-.92,2.39-2.12,2.39-3.32V47A4.89,4.89,0,0,0,75.92,43Z"/><path class="cls-29" d="M64.65,68V47.43a3.08,3.08,0,0,1,1.41-3c2.39-1.21,2.69-2.19,2.69-3.41V37.64h-2v3.12a1.88,1.88,0,0,1-1.2,1.74,8,8,0,0,0-1.1.53A4.88,4.88,0,0,0,62,47V68c0,1.2.79,2.4,2.38,3.32a12.8,12.8,0,0,0,8.46,1.11C66.25,72.85,64.65,70.05,64.65,68Z"/><path class="cls-12" d="M73.83,36.71v.92a1.86,1.86,0,0,1-1.09,1.53,5.83,5.83,0,0,1-5.27,0,2.43,2.43,0,0,1-.82-.71,1.43,1.43,0,0,1-.27-.81V36.7a.74.74,0,0,1,0-.25,2,2,0,0,1,1.06-1.27l0,0a5.85,5.85,0,0,1,5.22,0,2,2,0,0,1,1.06,1.27A1.15,1.15,0,0,1,73.83,36.71Z"/><path class="cls-18" d="M67.47,38.22c-1.46-.84-1.46-2.2,0-3a5.83,5.83,0,0,1,5.27,0c1.45.84,1.45,2.2,0,3A5.83,5.83,0,0,1,67.47,38.22Z"/><path class="cls-12" d="M73.83,33.86v2.33a1.15,1.15,0,0,1,0,.26,2,2,0,0,1-1.06,1.27,5.24,5.24,0,0,1-2.33.62,5.54,5.54,0,0,1-2.94-.62,2.43,2.43,0,0,1-.82-.71,1.31,1.31,0,0,1-.24-.56.72.72,0,0,1,0-.25V33.85a1.84,1.84,0,0,1,1.09-1.52l.19-.11a5.91,5.91,0,0,1,5.08.11A1.86,1.86,0,0,1,73.83,33.86Z"/><path class="cls-4" d="M73.83,33.84C73.83,35,72.16,36,70.1,36s-3.72-1-3.72-2.14S68,31.7,70.1,31.7,73.83,32.66,73.83,33.84Z"/><path class="cls-26" d="M48.5,81c-3.32-1.9-3.32-5,0-6.87a13.43,13.43,0,0,1,12,0c3.31,1.9,3.31,5,0,6.87A13.43,13.43,0,0,1,48.5,81Z"/><path class="cls-2" d="M60.82,51.6a7.46,7.46,0,0,0-1.1-.53,1.87,1.87,0,0,1-1.2-1.73V46.21H51.61v3.13a1.87,1.87,0,0,1-1.2,1.73,8.57,8.57,0,0,0-1.1.53,4.9,4.9,0,0,0-2.38,3.92v21c0,1.2.79,2.4,2.38,3.32a12.69,12.69,0,0,0,11.51,0c1.59-.92,2.39-2.12,2.39-3.32v-21A4.92,4.92,0,0,0,60.82,51.6Z"/><path class="cls-4" d="M60.82,59.83a12.79,12.79,0,0,1-11.5,0c-1.59-.91-2.38-2.1-2.38-3.29V71.45c0,1.19.79,2.38,2.38,3.29a12.86,12.86,0,0,0,11.5,0c1.59-.91,2.39-2.1,2.39-3.29V56.54C63.21,57.73,62.41,58.92,60.82,59.83Z"/><path class="cls-29" d="M49.55,76.59V56a3.1,3.1,0,0,1,1.41-3c2.39-1.21,2.69-2.19,2.69-3.41V46.21h-2v3.13a1.87,1.87,0,0,1-1.2,1.73,8.57,8.57,0,0,0-1.1.53,4.9,4.9,0,0,0-2.38,3.92v21c0,1.2.79,2.4,2.38,3.32A12.75,12.75,0,0,0,57.77,81C51.15,81.42,49.55,78.62,49.55,76.59Z"/><path class="cls-8" d="M58.73,45.28v.92a1.86,1.86,0,0,1-1.09,1.53,5.83,5.83,0,0,1-5.27,0,2.43,2.43,0,0,1-.82-.71,1.4,1.4,0,0,1-.27-.81v-.93a.69.69,0,0,1,0-.25,2,2,0,0,1,1.06-1.28l.05,0a5.85,5.85,0,0,1,5.22,0A2,2,0,0,1,58.7,45,1.22,1.22,0,0,1,58.73,45.28Z"/><path class="cls-29" d="M58.73,45.28v.92a1.86,1.86,0,0,1-1.09,1.53,5.83,5.83,0,0,1-5.27,0,2.43,2.43,0,0,1-.82-.71,1.4,1.4,0,0,1-.27-.81v-.93a.69.69,0,0,1,0-.25,2,2,0,0,1,1.06-1.28l.05,0a5.85,5.85,0,0,1,5.22,0A2,2,0,0,1,58.7,45,1.22,1.22,0,0,1,58.73,45.28Z"/><path class="cls-29" d="M52.37,46.8c-1.46-.84-1.46-2.21,0-3a5.83,5.83,0,0,1,5.27,0c1.45.84,1.45,2.21,0,3A5.83,5.83,0,0,1,52.37,46.8Z"/><path class="cls-8" d="M58.73,42.43v2.33a1.09,1.09,0,0,1,0,.26,2,2,0,0,1-1.06,1.27,5.2,5.2,0,0,1-2.33.62,5.54,5.54,0,0,1-2.94-.62,2.43,2.43,0,0,1-.82-.71,1.32,1.32,0,0,1-.24-.55.77.77,0,0,1,0-.26V42.42a1.84,1.84,0,0,1,1.09-1.52l.2-.1a5.85,5.85,0,0,1,5.07.1A1.87,1.87,0,0,1,58.73,42.43Z"/><path class="cls-29" d="M58.73,42.43v2.33a1.09,1.09,0,0,1,0,.26,2,2,0,0,1-1.06,1.27,5.2,5.2,0,0,1-2.33.62,5.54,5.54,0,0,1-2.94-.62,2.43,2.43,0,0,1-.82-.71,1.32,1.32,0,0,1-.24-.55.77.77,0,0,1,0-.26V42.42a1.84,1.84,0,0,1,1.09-1.52l.2-.1a5.85,5.85,0,0,1,5.07.1A1.87,1.87,0,0,1,58.73,42.43Z"/><path class="cls-8" d="M58.73,42.41c0,1.19-1.67,2.15-3.73,2.15s-3.72-1-3.72-2.15S53,40.27,55,40.27,58.73,41.23,58.73,42.41Z"/></g><g id="Book_Shelf" data-name="Book Shelf"><g id="Shelf-3" data-name="Shelf"><path class="cls-8" d="M341.24,37.46V33.87h0a1.21,1.21,0,0,1,.72-1l21.71-12.46a3.71,3.71,0,0,1,3.34,0l62.41,35.82a1.2,1.2,0,0,1,.72.95h0v3.6h0a1.2,1.2,0,0,1-.72,1L407.71,74.23a3.71,3.71,0,0,1-3.34,0L342,38.42a1.23,1.23,0,0,1-.72-1Z"/><path class="cls-9" d="M341.24,37.46V33.87h0a1.21,1.21,0,0,1,.72-1l21.71-12.46a3.71,3.71,0,0,1,3.34,0l62.41,35.82a1.2,1.2,0,0,1,.72.95h0v3.6h0a1.2,1.2,0,0,1-.72,1L407.71,74.23a3.71,3.71,0,0,1-3.34,0L342,38.42a1.23,1.23,0,0,1-.72-1Z"/><path class="cls-8" d="M429.42,58.18,407.71,70.64a3.71,3.71,0,0,1-3.34,0L342,34.82a1,1,0,0,1,0-1.91l21.71-12.46a3.71,3.71,0,0,1,3.34,0l62.41,35.82A1,1,0,0,1,429.42,58.18Z"/><path class="cls-11" d="M429.42,58.18,407.71,70.64a3.71,3.71,0,0,1-3.34,0L342,34.82a1,1,0,0,1,0-1.91l21.71-12.46a3.71,3.71,0,0,1,3.34,0l62.41,35.82A1,1,0,0,1,429.42,58.18Z"/><path class="cls-8" d="M406,71v3.59a3.49,3.49,0,0,0,1.67-.4l21.71-12.45a1.23,1.23,0,0,0,.72-1h0V57.23h0a.91.91,0,0,0-.14-.41c.25.46.06,1-.58,1.36L407.71,70.64A3.38,3.38,0,0,1,406,71Z"/><path class="cls-25" d="M406,71v3.59a3.49,3.49,0,0,0,1.67-.4l21.71-12.45a1.23,1.23,0,0,0,.72-1h0V57.23h0a.91.91,0,0,0-.14-.41c.25.46.06,1-.58,1.36L407.71,70.64A3.38,3.38,0,0,1,406,71Z"/></g><polygon points="394.38 40.65 375.99 51.14 345.6 33.7 363.99 23.21 394.38 40.65"/><path class="cls-5" d="M375.78,50.34l17.74-10.18a7.34,7.34,0,0,1,.1-4.6L376,45.63A17.31,17.31,0,0,0,375.78,50.34Z"/><path class="cls-18" d="M376.89,44.19a3.77,3.77,0,0,0-1.7,2.94v3.43c0,1.08.76,1.52,1.7,1l17.49-10v-.85l-17.25,9.84c-.57.33-1,.06-1-.59V46.73a2.23,2.23,0,0,1,1-1.76l17.23-9.85v-1Z"/><path class="cls-4" d="M394.38,34.16,364,16.72l-17.48,10a3.74,3.74,0,0,0-1.71,2.93v3.43a1.19,1.19,0,0,0,.5,1.1l30.39,17.44a1.19,1.19,0,0,1-.5-1.1V47.13a3.75,3.75,0,0,1,1.7-2.94Z"/><path class="cls-12" d="M375.68,45.46a3.52,3.52,0,0,0-.49,1.67v3.43a1.19,1.19,0,0,0,.5,1.1L345.3,34.22a1.19,1.19,0,0,1-.5-1.1V29.69a3.43,3.43,0,0,1,.5-1.67Z"/><path class="cls-30" d="M347.52,33.52l.13,0c.09,0,.09,0,.09-.17v-2c0-.14,0-.19-.09-.26l-.13-.12v-.26l1.4.81.11.79-.2,0c-.11-.54-.19-.63-.47-.79l-.2-.11v1.13l.13.08c.21.12.22.12.27-.21l.16.06v1.1l-.16,0c-.05-.42,0-.48-.24-.6l-.16-.1v.82c0,.16,0,.2.11.28l.18.14v.26l-.93-.53Z"/><path class="cls-30" d="M349.42,34.62l.14,0c.07,0,.07,0,.07-.16V33.35c0-.19,0-.25-.09-.32l-.14-.11,0-.26.53.26,0,0,0,.38h0c.07-.15.18-.33.43-.19a.75.75,0,0,1,.34.67c0,.23-.08.34-.23.25a.38.38,0,0,1-.2-.33.64.64,0,0,1,.07-.24c-.21-.17-.38,0-.38.44v.78c0,.12,0,.17.07.23l.24.19v.26l-.93-.53Z"/><path class="cls-30" d="M351.16,34.85c0-.81.31-1.08.74-.84a1.33,1.33,0,0,1,.57,1.17,3,3,0,0,1,0,.42l-.85-.49A1,1,0,0,0,352,36a.34.34,0,0,0,.41,0l.12.28a.42.42,0,0,1-.63.13A1.73,1.73,0,0,1,351.16,34.85Zm.91.21v-.23c0-.3-.07-.44-.21-.52s-.26.13-.28.47Z"/><path class="cls-30" d="M352.94,36.65l.14,0c.07,0,.07,0,.07-.16V35.38c0-.19,0-.25-.1-.32l-.13-.11,0-.26.53.26,0,0,0,.4h0c.08-.16.19-.35.47-.18a1,1,0,0,1,.47,1v1.08c0,.12,0,.16.08.23l.14.11v.26l-.82-.47V37.2l.1,0c.08,0,.09,0,.09-.13v-.88c0-.31,0-.52-.21-.63s-.29,0-.29.4v.8c0,.12,0,.17.07.23l.12.11v.26l-.81-.46Z"/><path class="cls-30" d="M355.12,37.13c0-.76.29-1.09.77-.81a1.12,1.12,0,0,1,.55.92c0,.19-.08.28-.22.2a.41.41,0,0,1-.21-.36.6.6,0,0,1,.09-.24.58.58,0,0,0-.19-.19c-.27-.15-.37.15-.37.62s.14.83.37,1a.33.33,0,0,0,.41,0l.12.28a.44.44,0,0,1-.63.13A1.74,1.74,0,0,1,355.12,37.13Z"/><path class="cls-30" d="M356.85,38.91l.13,0c.08,0,.08-.05.08-.17V36.5a.29.29,0,0,0-.11-.28l-.13-.11,0-.26.58.32,0,.06v1.36h0a.29.29,0,0,1,.45-.11,1.06,1.06,0,0,1,.45,1v1.08a.24.24,0,0,0,.09.23l.13.11v.26l-.81-.47v-.26l.1,0c.08,0,.09,0,.09-.14v-.87c0-.31,0-.52-.21-.63s-.3,0-.3.4V39c0,.13,0,.17.07.23l.12.12v.26l-.8-.47Z"/><path class="cls-30" d="M359.86,40.65l.16,0c.07,0,.08,0,.08-.18v-2c0-.14,0-.19-.09-.26l-.15-.13v-.27l.9.53a2.11,2.11,0,0,1,1,2c0,1-.3,1.48-1.15,1l-.76-.44Zm1.48-.52a1.65,1.65,0,0,0-.72-1.53l-.1-.06V41a1.56,1.56,0,0,0,.17.12C361.24,41.4,361.34,40.81,361.34,40.13Z"/><path class="cls-30" d="M362.29,41.27c0-.81.3-1.08.73-.83a1.29,1.29,0,0,1,.57,1.16,1.93,1.93,0,0,1,0,.42l-.84-.49a.94.94,0,0,0,.37.84.33.33,0,0,0,.4,0l.13.28a.44.44,0,0,1-.64.13A1.73,1.73,0,0,1,362.29,41.27Zm.9.21s0-.15,0-.23c0-.3-.08-.44-.21-.52s-.27.13-.28.47Z"/><path class="cls-30" d="M364.09,42.64l.21.1a1,1,0,0,0,.39.69c.14.07.21,0,.21-.16,0-.47-.79-.59-.79-1.48,0-.42.21-.61.55-.41a1,1,0,0,1,.32.32l0-.12.17.09,0,.78-.21-.14a.86.86,0,0,0-.34-.64c-.13-.07-.19,0-.19.13,0,.47.79.58.79,1.52,0,.39-.17.66-.56.44a1.1,1.1,0,0,1-.36-.35l0,.12-.16-.09Z"/><path class="cls-30" d="M365.74,43.59l.21.1a.89.89,0,0,0,.38.68c.14.08.22,0,.22-.15,0-.47-.8-.59-.8-1.49,0-.41.21-.6.55-.4a1,1,0,0,1,.32.32l0-.12.17.09,0,.78-.21-.14a.9.9,0,0,0-.33-.64c-.14-.08-.2,0-.2.13,0,.47.79.58.79,1.52,0,.39-.17.66-.56.44a1.1,1.1,0,0,1-.36-.35l0,.12-.16-.09Z"/><path class="cls-30" d="M367.35,44.19c0-.8.3-1.08.74-.83a1.31,1.31,0,0,1,.56,1.16,1.93,1.93,0,0,1,0,.42l-.84-.48a.94.94,0,0,0,.37.83.33.33,0,0,0,.4,0l.13.28a.42.42,0,0,1-.63.13A1.73,1.73,0,0,1,367.35,44.19Zm.9.21a1.48,1.48,0,0,0,0-.22c0-.31-.08-.45-.21-.52s-.27.13-.28.46Z"/><path class="cls-30" d="M369.13,46l.13,0c.07,0,.08,0,.08-.17V44.73c0-.2,0-.26-.1-.33l-.14-.11,0-.25.53.26,0,.05,0,.38h0c.06-.14.18-.32.43-.18a.78.78,0,0,1,.34.67c0,.23-.08.34-.24.25a.42.42,0,0,1-.19-.34.51.51,0,0,1,.06-.23c-.2-.17-.38,0-.38.44v.77c0,.13,0,.18.07.23l.25.2v.26l-.93-.54Z"/><path class="cls-30" d="M371.08,46.79v-1.3l-.21-.12v-.29c.24.09.31,0,.34-.6l.23.1,0,.05v.75l.42.24V46l-.42-.24v1.2a.5.5,0,0,0,.17.46.27.27,0,0,0,.25,0l.09.28a.36.36,0,0,1-.47,0A1,1,0,0,1,371.08,46.79Z"/><path class="cls-30" d="M372.42,47.45l.21.09c.09.43.24.61.39.69s.21,0,.21-.16c0-.47-.8-.59-.8-1.48,0-.41.21-.6.55-.4a.89.89,0,0,1,.32.32l0-.13.17.1,0,.78-.21-.15a.89.89,0,0,0-.33-.63c-.14-.08-.2,0-.2.13,0,.47.79.58.79,1.52,0,.38-.17.66-.56.43a1,1,0,0,1-.36-.35l0,.13-.16-.09Z"/><polygon class="cls-8" points="413.08 14.55 413.25 16.88 392.72 27.89 392.25 26.54 413.08 14.55"/><polygon class="cls-31" points="413.08 14.55 413.25 16.88 392.72 27.89 392.25 26.54 413.08 14.55"/><polygon class="cls-5" points="392.53 27.08 412.42 15.6 415.88 17.59 395.6 29.46 392.53 27.08"/><path class="cls-8" d="M399.33,28.23l2,23.05a1.64,1.64,0,0,1-.74,1.28L389,59.24a1.56,1.56,0,0,1-.6.17l7.18-29.2a1.4,1.4,0,0,0,.59-.17l.84-.48Z"/><path class="cls-31" d="M399.33,28.23l2,23.05a1.64,1.64,0,0,1-.74,1.28L389,59.24a1.56,1.56,0,0,1-.6.17l7.18-29.2a1.4,1.4,0,0,0,.59-.17l.84-.48Z"/><path class="cls-8" d="M394.72,30l-2.06-1.76L391.15,27c-.15-.25-.33-.43-.24-.64l-7.07,29v0c-.1.21-.13.66.15.82l3.57,3.06a1.57,1.57,0,0,0,.87.17l7.18-29.2A1.52,1.52,0,0,1,394.72,30Z"/><path class="cls-32" d="M394.72,30l-2.06-1.76L391.15,27c-.15-.25-.33-.43-.24-.64l-7.07,29v0c-.1.21-.13.66.15.82l3.57,3.06a1.57,1.57,0,0,0,.87.17l7.18-29.2A1.52,1.52,0,0,1,394.72,30Z"/><path class="cls-8" d="M391.15,26.13c-.41.24-.31.5,0,.86L394.72,30a1.59,1.59,0,0,0,1.47,0l3.14-1.81c.41-.23.48-.57.16-.76s-.1-.6-.51-.37L395.7,29a.53.53,0,0,1-.49,0l-2.61-2.26c-.13-.08-.13-.21,0-.28l20.48-11.89-1-.57Z"/><path class="cls-13" d="M391.15,26.13c-.41.24-.31.5,0,.86L394.72,30a1.59,1.59,0,0,0,1.47,0l3.14-1.81c.41-.23.48-.57.16-.76s-.1-.6-.51-.37L395.7,29a.53.53,0,0,1-.49,0l-2.61-2.26c-.13-.08-.13-.21,0-.28l20.48-11.89-1-.57Z"/><polygon class="cls-8" points="419.01 15.67 399.44 26.97 399.44 64.2 419.01 52.9 419.01 15.67"/><polygon class="cls-13" points="419.01 15.67 399.44 26.97 399.44 64.2 419.01 52.9 419.01 15.67"/><path class="cls-5" d="M400.07,27.59,419,16.72a7.91,7.91,0,0,0,4.33,2.37L404.56,29.91A18.81,18.81,0,0,1,400.07,27.59Z"/><path class="cls-8" d="M406.38,29.85a4.09,4.09,0,0,1-3.64,0L399.55,28a1.1,1.1,0,0,1,0-2.09l18.67-10.71.79.45-18.36,10.6c-.6.35-.6.91,0,1.25l3,1.68a2.39,2.39,0,0,0,2.18,0l18.35-10.58.9.52Z"/><path class="cls-33" d="M406.38,29.85a4.09,4.09,0,0,1-3.64,0L399.55,28a1.1,1.1,0,0,1,0-2.09l18.67-10.71.79.45-18.36,10.6c-.6.35-.6.91,0,1.25l3,1.68a2.39,2.39,0,0,0,2.18,0l18.35-10.58.9.52Z"/><path class="cls-8" d="M425,19.13V56.36L406.38,67.07a4,4,0,0,1-3.64,0l-3.19-1.83a1.26,1.26,0,0,1-.75-1V27a1.28,1.28,0,0,0,.75,1.05l3.19,1.83a4,4,0,0,0,3.64,0Z"/><path class="cls-13" d="M404.56,30.28a3.71,3.71,0,0,1-1.82-.43L399.55,28A1.28,1.28,0,0,1,398.8,27V64.2a1.26,1.26,0,0,0,.75,1l3.19,1.83a3.71,3.71,0,0,0,1.82.43Z"/><path class="cls-4" d="M401.26,34a1.09,1.09,0,0,0,0,.2v.52a1.15,1.15,0,0,0,0,.2,1.22,1.22,0,0,0,0,.26,1.13,1.13,0,0,0,.08.24,1,1,0,0,0,.13.22.64.64,0,0,0,.2.16.59.59,0,0,0,.2.08.2.2,0,0,0,.13,0,.16.16,0,0,0,.07-.09.28.28,0,0,0,0-.12l0-.1s0,0,.08,0l.47.27a.1.1,0,0,1,0,.07.16.16,0,0,1,0,.09,1.51,1.51,0,0,1-.09.47.64.64,0,0,1-.24.29.5.5,0,0,1-.34.09,1.18,1.18,0,0,1-.44-.14,1.82,1.82,0,0,1-.45-.38,2.59,2.59,0,0,1-.34-.52,2.63,2.63,0,0,1-.22-.59,3.44,3.44,0,0,1-.09-.62v-1a1.94,1.94,0,0,1,.09-.52.73.73,0,0,1,.22-.35.49.49,0,0,1,.34-.12.92.92,0,0,1,.45.15,2.05,2.05,0,0,1,.44.35,2.85,2.85,0,0,1,.34.49,2.78,2.78,0,0,1,.24.56,3.05,3.05,0,0,1,.09.57s0,.06,0,.07,0,0,0,0l-.47-.27a.2.2,0,0,1-.08-.08l0-.15a.53.53,0,0,0,0-.16A.67.67,0,0,0,402,34l-.13-.18a.83.83,0,0,0-.2-.16.4.4,0,0,0-.2-.07.21.21,0,0,0-.13.07.31.31,0,0,0-.08.15A.78.78,0,0,0,401.26,34Z"/><path class="cls-4" d="M402.64,39.9c0,.06,0,.13,0,.21s0,.16,0,.21a1.25,1.25,0,0,1-.08.45.58.58,0,0,1-.19.28.44.44,0,0,1-.3.1.72.72,0,0,1-.39-.13,1.66,1.66,0,0,1-.39-.32,1.9,1.9,0,0,1-.3-.44,2.82,2.82,0,0,1-.19-.51,2,2,0,0,1-.08-.54v-.42a1.4,1.4,0,0,1,.07-.44.71.71,0,0,1,.2-.29.44.44,0,0,1,.3-.1.72.72,0,0,1,.39.13,1.66,1.66,0,0,1,.39.32,2.21,2.21,0,0,1,.3.45,2.25,2.25,0,0,1,.2.51A2.49,2.49,0,0,1,402.64,39.9Zm-1.28-.35a.79.79,0,0,0,.09.38.62.62,0,0,0,.23.25.2.2,0,0,0,.23,0,.38.38,0,0,0,.1-.27v-.37a.93.93,0,0,0-.1-.38.56.56,0,0,0-.23-.25.22.22,0,0,0-.23,0,.34.34,0,0,0-.09.27,1,1,0,0,0,0,.18A1.09,1.09,0,0,0,401.36,39.55Z"/><path class="cls-4" d="M402.64,44.26c0,.05,0,.12,0,.21s0,.15,0,.2a1.21,1.21,0,0,1-.08.45.67.67,0,0,1-.19.29.43.43,0,0,1-.3.09.79.79,0,0,1-.39-.12,1.71,1.71,0,0,1-.39-.33,1.9,1.9,0,0,1-.3-.44,2.82,2.82,0,0,1-.19-.51,2,2,0,0,1-.08-.54v-.41a1.42,1.42,0,0,1,.07-.45.71.71,0,0,1,.2-.29.49.49,0,0,1,.3-.1.82.82,0,0,1,.39.13,1.49,1.49,0,0,1,.39.33,1.9,1.9,0,0,1,.3.44,2.25,2.25,0,0,1,.2.51A2.5,2.5,0,0,1,402.64,44.26Zm-1.28-.36a.76.76,0,0,0,.09.38.56.56,0,0,0,.23.25.2.2,0,0,0,.23,0,.38.38,0,0,0,.1-.27v-.37a.93.93,0,0,0-.1-.38.62.62,0,0,0-.23-.25.2.2,0,0,0-.23,0q-.09.06-.09.27a1,1,0,0,0,0,.18A1,1,0,0,0,401.36,43.9Z"/><path class="cls-4" d="M401.44,47.58l.47-.51,0,0s.05,0,.09,0l.52.3a.14.14,0,0,1,.06.07.36.36,0,0,1,0,.11v0l0,0-.63.72.75,1.7a.45.45,0,0,1,0,.08.07.07,0,0,1,0,.05.12.12,0,0,1,0,.07,0,0,0,0,1-.06,0l-.53-.31a.26.26,0,0,1-.14-.17l-.57-1.3v.92a.12.12,0,0,1,0,.09,0,0,0,0,1-.06,0l-.45-.26a.13.13,0,0,1-.06-.08.27.27,0,0,1,0-.12V45.45s0-.07,0-.08,0,0,.06,0l.45.26a.13.13,0,0,1,.06.08.27.27,0,0,1,0,.12Z"/><path class="cls-4" d="M402,50.93a.12.12,0,0,1,0,.09.06.06,0,0,1-.07,0l-.44-.26a.19.19,0,0,1-.07-.08.27.27,0,0,1,0-.12V50a.12.12,0,0,1,0-.09s0,0,.07,0l.44.25a.22.22,0,0,1,.07.09.23.23,0,0,1,0,.11Zm0,3.13a.12.12,0,0,1,0,.09s0,0-.07,0l-.44-.25a.22.22,0,0,1-.07-.09.23.23,0,0,1,0-.11V51.16a.12.12,0,0,1,0-.09s0,0,.07,0l.44.26s.05,0,.07.08a.27.27,0,0,1,0,.12Z"/><path class="cls-4" d="M402.63,58.78a.12.12,0,0,1,0,.09s0,0-.06,0l-.45-.26s0,0-.07-.08a.5.5,0,0,1,0-.12V57a1.08,1.08,0,0,0-.08-.42.58.58,0,0,0-.23-.28c-.11-.06-.18-.06-.23,0a.57.57,0,0,0-.08.33v1.38s0,.07,0,.09a.06.06,0,0,1-.07,0l-.45-.26a.18.18,0,0,1-.06-.08.27.27,0,0,1,0-.12V55.16a.12.12,0,0,1,0-.09,0,0,0,0,1,.06,0l.43.24a.19.19,0,0,1,.07.08.27.27,0,0,1,0,.12v.13a.23.23,0,0,1,.07-.07.19.19,0,0,1,.1,0,.33.33,0,0,1,.14,0,.87.87,0,0,1,.19.08,1.79,1.79,0,0,1,.31.25,2,2,0,0,1,.24.37,2.08,2.08,0,0,1,.16.48,3.39,3.39,0,0,1,.05.58Z"/><path class="cls-4" d="M401.64,63.09a.31.31,0,0,0,.24,0c.06,0,.1-.1.1-.23v-.38l-.07.08-.09,0h-.14a.53.53,0,0,1-.19-.09,1.13,1.13,0,0,1-.3-.24,1.6,1.6,0,0,1-.25-.37,2.48,2.48,0,0,1-.17-.48,2.62,2.62,0,0,1-.08-.58V60.5a1.69,1.69,0,0,1,.08-.5.58.58,0,0,1,.17-.28.32.32,0,0,1,.25-.08.64.64,0,0,1,.3.09l.2.15a1,1,0,0,1,.14.17.7.7,0,0,1,.1.16l.07.14v-.12a.2.2,0,0,1,0-.09s0,0,.07,0l.41.23a.22.22,0,0,1,.07.09.27.27,0,0,1,0,.12v2.64a1.37,1.37,0,0,1-.08.5.51.51,0,0,1-.2.27.42.42,0,0,1-.3.05,1,1,0,0,1-.39-.14,1.86,1.86,0,0,1-.45-.37,2.22,2.22,0,0,1-.27-.41,1.42,1.42,0,0,1-.14-.39,1.38,1.38,0,0,1,0-.31.09.09,0,0,1,0-.09,0,0,0,0,1,.07,0l.46.26a.27.27,0,0,1,.11.17.53.53,0,0,0,.08.17A.44.44,0,0,0,401.64,63.09Zm-.31-2.17a.62.62,0,0,0,0,.13.82.82,0,0,0,0,.14,1.05,1.05,0,0,0,.08.36.55.55,0,0,0,.24.26c.09.06.17.06.22,0a.4.4,0,0,0,.09-.23,1.93,1.93,0,0,0,0-.34,1,1,0,0,0-.09-.33.54.54,0,0,0-.22-.25c-.11-.06-.18-.06-.23,0A.37.37,0,0,0,401.33,60.92Z"/></g></g></g></g></svg>